<svg width="292" height="78" viewBox="0 0 292 78" fill="none" xmlns="http://www.w3.org/2000/svg">
<g filter="url(#filter0_d_1_6)">
<path d="M32.6 69.96C26.712 69.96 21.688 68.936 17.528 66.888C13.432 64.84 10.232 61.896 7.928 58.056C5.688 54.152 4.472 49.512 4.28 44.136C4.216 41.384 4.184 38.44 4.184 35.304C4.184 32.104 4.216 29.096 4.28 26.28C4.472 20.968 5.688 16.424 7.928 12.648C10.232 8.872 13.464 5.96 17.624 3.912C21.848 1.864 26.84 0.839996 32.6 0.839996C37.272 0.839996 41.368 1.48 44.888 2.75999C48.408 3.976 51.32 5.576 53.624 7.56C55.992 9.48 57.752 11.56 58.904 13.8C60.12 16.04 60.76 18.12 60.824 20.04C60.888 20.616 60.728 21.096 60.344 21.48C59.96 21.864 59.448 22.056 58.808 22.056H48.92C48.28 22.056 47.8 21.928 47.48 21.672C47.16 21.416 46.872 21.032 46.616 20.52C46.104 19.176 45.304 17.864 44.216 16.584C43.128 15.24 41.656 14.12 39.8 13.224C37.944 12.328 35.544 11.88 32.6 11.88C28.248 11.88 24.76 13.032 22.136 15.336C19.576 17.64 18.2 21.448 18.008 26.76C17.816 32.328 17.816 37.96 18.008 43.656C18.2 49.096 19.608 53 22.232 55.368C24.92 57.736 28.44 58.92 32.792 58.92C35.672 58.92 38.232 58.408 40.472 57.384C42.776 56.36 44.568 54.76 45.848 52.584C47.192 50.408 47.864 47.624 47.864 44.232V41.256H36.152C35.512 41.256 34.968 41.032 34.52 40.584C34.072 40.136 33.848 39.56 33.848 38.856V33.768C33.848 33.064 34.072 32.488 34.52 32.04C34.968 31.592 35.512 31.368 36.152 31.368H59.096C59.8 31.368 60.344 31.592 60.728 32.04C61.176 32.488 61.4 33.064 61.4 33.768V43.848C61.4 49.224 60.216 53.864 57.848 57.768C55.544 61.672 52.216 64.68 47.864 66.792C43.576 68.904 38.488 69.96 32.6 69.96ZM87.0508 69.96C83.7228 69.96 80.7148 69.32 78.0268 68.04C75.3388 66.696 73.1948 64.936 71.5948 62.76C70.0588 60.52 69.2908 58.024 69.2908 55.272C69.2908 50.792 71.0828 47.24 74.6668 44.616C78.3148 41.928 83.1148 40.136 89.0668 39.24L102.219 37.32V35.304C102.219 32.616 101.547 30.536 100.203 29.064C98.8588 27.592 96.5548 26.856 93.2908 26.856C90.9868 26.856 89.0988 27.336 87.6268 28.296C86.2188 29.192 85.1628 30.408 84.4588 31.944C83.9468 32.776 83.2108 33.192 82.2508 33.192H74.6668C73.9628 33.192 73.4188 33 73.0348 32.616C72.7148 32.232 72.5547 31.72 72.5547 31.08C72.6188 30.056 73.0348 28.808 73.8028 27.336C74.5708 25.864 75.7868 24.456 77.4508 23.112C79.1148 21.704 81.2588 20.52 83.8828 19.56C86.5068 18.6 89.6748 18.12 93.3868 18.12C97.4188 18.12 100.811 18.632 103.563 19.656C106.379 20.616 108.619 21.928 110.283 23.592C111.947 25.256 113.163 27.208 113.931 29.448C114.699 31.688 115.083 34.056 115.083 36.552V66.696C115.083 67.336 114.859 67.88 114.411 68.328C113.963 68.776 113.419 69 112.779 69H105.003C104.299 69 103.723 68.776 103.275 68.328C102.891 67.88 102.699 67.336 102.699 66.696V62.952C101.867 64.168 100.747 65.32 99.3388 66.408C97.9308 67.432 96.2028 68.296 94.1548 69C92.1708 69.64 89.8028 69.96 87.0508 69.96ZM90.3148 60.84C92.5548 60.84 94.5708 60.36 96.3628 59.4C98.2188 58.44 99.6588 56.968 100.683 54.984C101.771 52.936 102.315 50.376 102.315 47.304V45.288L92.7148 46.824C88.9388 47.4 86.1228 48.328 84.2668 49.608C82.4108 50.888 81.4828 52.456 81.4828 54.312C81.4828 55.72 81.8988 56.936 82.7308 57.96C83.6268 58.92 84.7468 59.656 86.0908 60.168C87.4348 60.616 88.8428 60.84 90.3148 60.84ZM155.047 69.96C151.335 69.96 148.231 69.32 145.734 68.04C143.303 66.76 141.287 65.128 139.687 63.144V66.696C139.687 67.336 139.463 67.88 139.015 68.328C138.631 68.776 138.087 69 137.383 69H129.799C129.159 69 128.615 68.776 128.167 68.328C127.719 67.88 127.495 67.336 127.495 66.696V3.144C127.495 2.504 127.719 1.96 128.167 1.512C128.615 1.064 129.159 0.839996 129.799 0.839996H137.959C138.663 0.839996 139.207 1.064 139.591 1.512C140.039 1.96 140.263 2.504 140.263 3.144V24.456C141.863 22.6 143.847 21.096 146.215 19.944C148.647 18.728 151.591 18.12 155.047 18.12C158.439 18.12 161.383 18.696 163.879 19.848C166.375 21 168.455 22.632 170.119 24.744C171.847 26.792 173.159 29.192 174.055 31.944C174.951 34.696 175.431 37.672 175.495 40.872C175.559 42.024 175.591 43.08 175.591 44.04C175.591 44.936 175.559 45.96 175.495 47.112C175.367 50.44 174.854 53.512 173.958 56.328C173.062 59.08 171.783 61.48 170.119 63.528C168.455 65.576 166.375 67.176 163.879 68.328C161.383 69.416 158.439 69.96 155.047 69.96ZM151.495 59.688C154.247 59.688 156.391 59.112 157.927 57.96C159.463 56.744 160.551 55.176 161.191 53.256C161.895 51.336 162.311 49.224 162.439 46.92C162.567 45 162.567 43.08 162.439 41.16C162.311 38.856 161.895 36.744 161.191 34.824C160.551 32.904 159.463 31.368 157.927 30.216C156.391 29 154.247 28.392 151.495 28.392C148.935 28.392 146.855 28.968 145.255 30.12C143.655 31.272 142.439 32.744 141.607 34.536C140.775 36.264 140.327 38.088 140.263 40.008C140.199 41.16 140.167 42.408 140.167 43.752C140.167 45.032 140.199 46.248 140.263 47.4C140.391 49.384 140.807 51.336 141.511 53.256C142.279 55.112 143.463 56.648 145.062 57.864C146.727 59.08 148.871 59.688 151.495 59.688ZM208.354 69.96C203.234 69.96 198.914 69.064 195.394 67.272C191.938 65.48 189.282 62.952 187.426 59.688C185.634 56.424 184.61 52.616 184.354 48.264C184.29 47.112 184.258 45.704 184.258 44.04C184.258 42.376 184.29 40.968 184.354 39.816C184.61 35.4 185.666 31.592 187.522 28.392C189.442 25.128 192.13 22.6 195.586 20.808C199.106 19.016 203.362 18.12 208.354 18.12C213.346 18.12 217.57 19.016 221.026 20.808C224.546 22.6 227.234 25.128 229.09 28.392C231.01 31.592 232.098 35.4 232.354 39.816C232.418 40.968 232.45 42.376 232.45 44.04C232.45 45.704 232.418 47.112 232.354 48.264C232.098 52.616 231.042 56.424 229.186 59.688C227.394 62.952 224.738 65.48 221.218 67.272C217.762 69.064 213.474 69.96 208.354 69.96ZM208.354 60.456C211.746 60.456 214.37 59.4 216.226 57.288C218.082 55.112 219.106 51.944 219.298 47.784C219.362 46.824 219.394 45.576 219.394 44.04C219.394 42.504 219.362 41.256 219.298 40.296C219.106 36.2 218.082 33.064 216.226 30.888C214.37 28.712 211.746 27.624 208.354 27.624C204.962 27.624 202.338 28.712 200.482 30.888C198.626 33.064 197.602 36.2 197.41 40.296C197.346 41.256 197.314 42.504 197.314 44.04C197.314 45.576 197.346 46.824 197.41 47.784C197.602 51.944 198.626 55.112 200.482 57.288C202.338 59.4 204.962 60.456 208.354 60.456ZM239.474 69C238.898 69 238.386 68.808 237.938 68.424C237.554 67.976 237.362 67.464 237.362 66.888C237.362 66.696 237.394 66.472 237.458 66.216C237.586 65.96 237.778 65.64 238.034 65.256L254.354 43.368L239.186 22.824C238.994 22.504 238.834 22.216 238.706 21.96C238.642 21.704 238.61 21.448 238.61 21.192C238.61 20.616 238.802 20.136 239.186 19.752C239.634 19.304 240.146 19.08 240.722 19.08H249.074C249.842 19.08 250.418 19.272 250.802 19.656C251.186 20.04 251.474 20.392 251.666 20.712L262.514 35.112L273.362 20.712C273.618 20.392 273.906 20.04 274.226 19.656C274.61 19.272 275.186 19.08 275.954 19.08H283.922C284.498 19.08 284.978 19.304 285.362 19.752C285.81 20.136 286.034 20.584 286.034 21.096C286.034 21.416 285.97 21.704 285.842 21.96C285.778 22.216 285.65 22.504 285.458 22.824L270.098 43.56L286.514 65.256C286.77 65.64 286.93 65.96 286.994 66.216C287.122 66.472 287.186 66.696 287.186 66.888C287.186 67.464 286.962 67.976 286.514 68.424C286.13 68.808 285.65 69 285.074 69H276.338C275.634 69 275.09 68.84 274.706 68.52C274.322 68.136 274.002 67.784 273.746 67.464L262.226 52.2L250.514 67.464C250.258 67.784 249.938 68.136 249.554 68.52C249.234 68.84 248.69 69 247.922 69H239.474Z" fill="white"/>
</g>
<defs>
<filter id="filter0_d_1_6" x="0.184006" y="0.839996" width="291.002" height="77.12" filterUnits="userSpaceOnUse" color-interpolation-filters="sRGB">
<feFlood flood-opacity="0" result="BackgroundImageFix"/>
<feColorMatrix in="SourceAlpha" type="matrix" values="0 0 0 0 0 0 0 0 0 0 0 0 0 0 0 0 0 0 127 0" result="hardAlpha"/>
<feOffset dy="4"/>
<feGaussianBlur stdDeviation="2"/>
<feComposite in2="hardAlpha" operator="out"/>
<feColorMatrix type="matrix" values="0 0 0 0 0 0 0 0 0 0 0 0 0 0 0 0 0 0 0.25 0"/>
<feBlend mode="normal" in2="BackgroundImageFix" result="effect1_dropShadow_1_6"/>
<feBlend mode="normal" in="SourceGraphic" in2="effect1_dropShadow_1_6" result="shape"/>
</filter>
</defs>
</svg>
